<svg xmlns="http://www.w3.org/2000/svg" width="68.917" height="68.918" viewBox="0 0 68.917 68.918"><g transform="translate(0 6.736)"><g transform="translate(0 -6.736)"><path d="M304.226,7279.42c-5.609.254-10.471,1.626-14.4,5.536-3.94,3.928-5.294,8.81-5.548,14.361-.158,3.462-1.08,29.639,1.594,36.5a17.37,17.37,0,0,0,10.029,10,25.186,25.186,0,0,0,8.322,1.592c30.533,1.38,41.851.628,46.624-11.594a24.929,24.929,0,0,0,1.591-8.3c1.4-30.611-.226-37.247-5.548-42.561-4.221-4.211-9.186-7.076-42.668-5.536m.281,61.835a18.912,18.912,0,0,1-6.367-1.176,11.214,11.214,0,0,1-6.508-6.487c-2.037-5.216-1.361-29.989-1.179-34,.178-3.926.974-7.513,3.744-10.285,3.429-3.421,7.859-5.1,38.022-3.736,3.936.18,7.533.974,10.31,3.736,3.429,3.421,5.129,7.885,3.744,37.932a18.861,18.861,0,0,1-1.179,6.352c-3.1,7.953-10.242,9.058-40.586,7.663m28.044-46.1a4.116,4.116,0,1,0,4.114-4.1,4.113,4.113,0,0,0-4.114,4.1m-31.795,18.258a17.607,17.607,0,1,0,17.607-17.559,17.585,17.585,0,0,0-17.607,17.559m6.179,0a11.428,11.428,0,1,1,11.428,11.4,11.414,11.414,0,0,1-11.428-11.4" transform="translate(-284 -7278.998)" fill="#fff" fill-rule="evenodd"/></g></g></svg>