<svg id="Vrstva_1" data-name="Vrstva 1" xmlns="http://www.w3.org/2000/svg" viewBox="0 0 1000 1000"><defs><style>.cls-1,.cls-2{stroke:#fff;stroke-miterlimit:10;}.cls-1{stroke-width:2px;}</style></defs><title>cierne_bezpozadia</title><path class="cls-1" d="M313.42,864.79,246,824.55V364.24l67.43-31V553h63.76V310.94l67.44-32.06V555.5h-32.8v87.06h32.8V932.93L377,898.7l.18-253.63H313.42Z"/><polygon class="cls-2" points="729.21 345.29 729.21 345.29 597.43 289.54 597.43 289.54 563.71 272 563.82 405.27 563.82 405.27 563.82 812.9 564 942.56 596.92 927.73 729.56 876.31 729.56 876.31 761.8 862.28 761.8 812.9 761.8 811.69 761.8 658.27 694.59 658.27 694.59 775.38 631.03 803.98 630.46 403.02 694.59 429.15 694.59 559.9 761.8 559.9 761.8 405.27 761.8 356.29 729.21 345.29"/><polygon class="cls-2" points="535.53 955.28 507.5 972.48 477.76 957.35 477.76 34.04 535.53 34.04 535.53 955.28"/><rect class="cls-2" x="452.48" y="185.34" width="108.32" height="53.64"/><polygon class="cls-2" points="239.45 327.02 452.53 238.99 452.53 185.34 238.94 278.19 239.45 327.02"/><rect class="cls-2" x="452.14" y="33.35" width="108.32" height="53.64" rx="3.77"/><path class="cls-2" d="M758.88,320.56,562.72,239.8a3.09,3.09,0,0,1-1.91-2.86V190.07a3.08,3.08,0,0,1,4.31-2.83l196.61,85.4a3.11,3.11,0,0,1,1.86,2.87l-.45,42.22A3.09,3.09,0,0,1,758.88,320.56Z"/></svg>